<svg xmlns="http://www.w3.org/2000/svg" width="888" height="726" viewBox="0 0 888 726">
    <defs>
        <style>
            .cls-1{fill:#e1f5f9}.cls-3{fill:#fdd835}.cls-4{fill:#8eab39}.cls-5{fill:#fff}.cls-6{fill:#455a64}.cls-7{fill:#80d7e8}.cls-8{fill:#4fc8e0}.cls-9{fill:#f7c9bc}.cls-10{fill:#fbc02d}.cls-11{fill:#ed9d66}
        </style>
    </defs>
    <g id="video-chat-alternative-4-m" transform="translate(-1132.155 -2412.611)">
        <path id="Path_469" d="M1597.8 2986.93c-59.008 35.367-86.011 86.173-151.124 112.849-41.919 17.164-130.236 19.172-172.418-2.44-67.986-34.834-127.853-68.816-174.326-132.981-73.052-100.872-111.121-261.195-16.678-361.688 55.756-59.323 140.078-40 209.218-66.393 85.145-32.489 153.221-152.781 313.39-149.093 68.137 1.565 136.734 32.623 178.053 88.695 54.955 74.57 54.38 180.068 25.81 269.2-62.851 196.081-189.045 228.134-211.925 241.851z" class="cls-1" data-name="Path 469" transform="translate(105 25.511)"/>
        <path id="Path_471" fill="#9ccc65" d="M1615.561 2542.715c-3.542-10.71-16.1-18.453-26.581-14.329-10.431 4.106-16.217 16.5-20.694 25.916-3.411 7.169-8.013 14.633-15.526 17.171-5.649 1.908-11.862.614-17.508-1.3a80.472 80.472 0 0 0-17.1-5.071c-20.337-2.119-39.056 34.34-48.116 49.055q-43.531 70.7-82.118 144.3l-11.469 24.806c9.14-2.538 18.984-7.03 28.432-7.947 6.187-.6 11.849 1.624 17.946 2.289 17.373 1.9 36.108-.62 53.089-4.27a206.032 206.032 0 0 0 92.871-46.556c10.248-9.065 17.092-25.5-.313-29.553-5.938-1.383-10.478 1.4-13.248-6.654-1.978-5.754 1.238-12.186 5.291-16.16 7.968-7.8 21.2-11.921 24.244-24.127a16.158 16.158 0 0 0-3.109-14.93c-4.27-4.488-11.5-5.282-15.462-10.047-4.132-4.975-3.093-12.745.607-18.053s9.447-8.742 14.984-12.08c9.651-5.827 19.377-12.008 26.385-20.84s10.934-20.908 7.395-31.62z" data-name="Path 471" transform="translate(403.27 193.061)"/>
        <path id="Path_472" d="M1558.309 2601.868c-3.579-7.928-12.8-12.138-21.49-12.047s-16.941 3.708-24.6 7.815c-7.814 4.183-15.851 9.081-24.708 8.909-8.249-.162-15.735-4.726-23.8-6.448-14.12-3.015-28.612 2.9-41.009 10.308a166.988 166.988 0 0 0-59.936 61.82l-3 14.183c35.287 4.922 71.5 7.555 106.319-.026s68.405-26.538 87.143-56.888c5.11-8.301 9.099-18.729 5.081-27.626z" class="cls-3" data-name="Path 472" transform="translate(375.726 296.224)"/>
        <path id="Path_473" d="M1413.241 2588.155c.186-20.947 3.319-43.741 18.314-58.343a11.1 11.1 0 0 1 7.141-3.8 8.407 8.407 0 0 1 7.286 5.362 22.5 22.5 0 0 1 1.323 9.426 164.408 164.408 0 0 1-10.279 54.768c-5.124 13.86-14.213 38.284-27.268 46.3 3.523-17.952 3.319-35.468 3.483-53.713z" class="cls-3" data-name="Path 473" transform="translate(458.251 190.997)"/>
        <g id="Group_130" data-name="Group 130" transform="translate(1823.448 2688.533)">
            <g id="Group_129" data-name="Group 129" transform="translate(0 35.366)">
                <path id="Path_474" d="M1512.24 2529.362a255.984 255.984 0 0 0-13.346 50.038c-3.083 16.98-5.419 34.074-9.153 50.82a199.99 199.99 0 0 1-7.016 24.636c-1.469 3.994-3.094 7.923-4.912 11.756a111.278 111.278 0 0 1-6.126 11.126 93.556 93.556 0 0 1-7.419 10.244c-1.323 1.645-2.765 3.179-4.18 4.742-1.49 1.491-2.932 3.027-4.512 4.428-1.521 1.46-3.154 2.793-4.761 4.16-.816.667-1.664 1.295-2.494 1.947l-1.251.969-1.294.916a119.453 119.453 0 0 1-10.685 6.83 135.805 135.805 0 0 1-20.328 8.977c-7.046 2.54-14.155 4.834-21.02 7.3-1.275.478-.93 2.012.432 1.853a118.918 118.918 0 0 0 36.742-11.828 114.4 114.4 0 0 0 21.686-13.369 95.352 95.352 0 0 0 17.747-18.419 98.71 98.71 0 0 0 6.495-10.114 109.048 109.048 0 0 0 5.312-10.748c.819-1.823 1.511-3.693 2.254-5.544.673-1.873 1.378-3.738 1.98-5.632 1.267-3.775 2.357-7.6 3.343-11.438a450.5 450.5 0 0 0 8.39-46.623c1.651-11.263 3.888-22.609 6.555-33.786s5.752-22.149 9.078-32.949c.386-1.201-1.042-1.454-1.517-.292z" class="cls-4" data-name="Path 474" transform="translate(-1392.947 -2528.611)"/>
            </g>
            <path id="Path_475" d="M1407.659 2618.783l.143-.822c.1-.53.247-1.324.461-2.278.422-1.937 1.14-4.559 2.06-7.63.466-1.523 1.031-3.089 1.612-4.768s1.3-3.311 2.007-5.032c.368-.853.758-1.7 1.182-2.53s.816-1.709 1.278-2.535.949-1.642 1.431-2.478 1.042-1.613 1.6-2.407a7.508 7.508 0 0 1 1.254 1.721 12.029 12.029 0 0 1 1.448 5.46 15.136 15.136 0 0 1-.448 4.336 21.987 21.987 0 0 1-2.07 5.444 41.93 41.93 0 0 1-11.958 13.519z" class="cls-4" data-name="Path 475" transform="translate(-1368.662 -2394.81)"/>
            <path id="Path_476" d="M1421.854 2617s-.331-1.523-.721-4.043c-.443-2.563-.952-6.093-1.493-10.135s-1.06-8.54-1.381-13.223a68.32 68.32 0 0 1 .438-14.551 9.832 9.832 0 0 1 2.484 1.274 15.973 15.973 0 0 1 4.962 5.542 21.249 21.249 0 0 1 2.049 5.3 27.92 27.92 0 0 1 .618 3.467 37.741 37.741 0 0 1 .172 4.059 43.1 43.1 0 0 1-.424 4.673 41.662 41.662 0 0 1-1.2 5.3 50.191 50.191 0 0 1-5.504 12.337z" class="cls-4" data-name="Path 476" transform="translate(-1351.494 -2416.667)"/>
            <path id="Path_477" d="M1437.422 2606.971s-.97-1.444-2.394-3.934c-.7-1.237-1.559-2.75-2.476-4.467s-1.906-3.636-2.908-5.722a105.86 105.86 0 0 1-5.792-14.349 64.68 64.68 0 0 1-3.072-17.786 9.806 9.806 0 0 1 3 .877 18.41 18.41 0 0 1 6.648 5.242 34.119 34.119 0 0 1 6.5 13.709c.416 1.619.734 3.354 1.028 5.255q.425 3.045.543 6.117a69.392 69.392 0 0 1-1.077 15.058z" class="cls-4" data-name="Path 477" transform="translate(-1347.001 -2440.306)"/>
            <path id="Path_478" d="M1442.405 2590.414a73.921 73.921 0 0 1-8.991-11.838 60.273 60.273 0 0 1-9.707-30.821 8.313 8.313 0 0 1 2.733.794 17.429 17.429 0 0 1 6.1 4.938 37.549 37.549 0 0 1 6.43 12.716 84.662 84.662 0 0 1 3.435 24.211z" class="cls-4" data-name="Path 478" transform="translate(-1342.171 -2461.677)"/>
            <path id="Path_479" d="M1442.025 2574s-.976-.94-2.447-2.708a56.049 56.049 0 0 1-5.354-7.7 51.484 51.484 0 0 1-5.132-12.185 45.658 45.658 0 0 1-1.487-16.16 6.828 6.828 0 0 1 2.293.933 15.079 15.079 0 0 1 4.851 4.89 37.016 37.016 0 0 1 4.732 11.684 103.112 103.112 0 0 1 2.544 21.246z" class="cls-4" data-name="Path 479" transform="translate(-1336.02 -2482.296)"/>
            <path id="Path_480" d="M1441.177 2560.184a29.645 29.645 0 0 1-1.917-2.57 43.846 43.846 0 0 1-3.929-7.264 41.512 41.512 0 0 1-3.056-11.39 38.809 38.809 0 0 1 .978-14.584 5.918 5.918 0 0 1 1.853 1.134 13.812 13.812 0 0 1 3.494 4.967 36.075 36.075 0 0 1 2.542 10.861 122.216 122.216 0 0 1 .035 18.846z" class="cls-4" data-name="Path 480" transform="translate(-1328.507 -2500.226)"/>
            <path id="Path_481" d="M1399.63 2602.883a27.855 27.855 0 0 0 2.619 1.7c.854.5 1.906 1.059 3.144 1.656.618.294 1.283.6 2 .893s1.455.56 2.251.829a44.769 44.769 0 0 0 5.264 1.428 46.3 46.3 0 0 0 6.163.71 42.289 42.289 0 0 0 6.9-.4c1.2-.2 2.417-.45 3.655-.757.618-.154 1.243-.321 1.869-.506s1.248-.424 1.877-.665a5.72 5.72 0 0 0-1.286-1.7 13.786 13.786 0 0 0-5.209-2.946 25.088 25.088 0 0 0-4.617-1.059 42.408 42.408 0 0 0-6.237-.477 126.751 126.751 0 0 0-18.393 1.294z" class="cls-4" data-name="Path 481" transform="translate(-1381.916 -2372.899)"/>
            <path id="Path_482" d="M1437.067 2542.79s.845-.283 2.256-.88a53.643 53.643 0 0 0 5.553-2.739 47.94 47.94 0 0 0 13.956-11.391 5 5 0 0 0-1.5-.583 8.981 8.981 0 0 0-4.366.138 14.59 14.59 0 0 0-3.226 1.285 24.065 24.065 0 0 0-3.828 2.691 42.563 42.563 0 0 0-8.845 11.479z" class="cls-4" data-name="Path 482" transform="translate(-1320.117 -2495.913)"/>
            <path id="Path_483" d="M1412.783 2605.236a32.056 32.056 0 0 0 3.987 1.16 42.946 42.946 0 0 0 10.807.957 43.575 43.575 0 0 0 7.406-.908c1.323-.266 2.646-.652 4.045-1.073.689-.215 1.389-.445 2.115-.7s1.391-.551 2.1-.858a46.76 46.76 0 0 0 16.662-12.074 7.039 7.039 0 0 0-2.542-1.184 14.007 14.007 0 0 0-3.279-.477 22.458 22.458 0 0 0-4.732.35 64.459 64.459 0 0 0-14.155 4.66c-1.485.63-3.014 1.351-4.689 2.079-.827.371-1.67.768-2.534 1.182s-1.787.795-2.709 1.231l-1.392.665-1.458.654c-.986.442-1.986.916-3.011 1.4-2.125.909-4.28 1.948-6.621 2.936z" class="cls-4" data-name="Path 483" transform="translate(-1360.204 -2391.896)"/>
            <path id="Path_484" d="M1422.921 2605.755s.424 0 1.217-.084a32.432 32.432 0 0 0 3.377-.482 46.317 46.317 0 0 0 5.132-1.28 49.409 49.409 0 0 0 6.415-2.524 53.245 53.245 0 0 0 14.481-10.186 57.8 57.8 0 0 0 12.284-17.783 8.507 8.507 0 0 0-3.1-.382 19.377 19.377 0 0 0-8.406 2.485 54.388 54.388 0 0 0-12.776 10.067c-5.06 4.99-10.823 11.896-18.624 20.169z" class="cls-4" data-name="Path 484" transform="translate(-1343.469 -2420.016)"/>
            <path id="Path_485" d="M1428.7 2593.245a36.843 36.843 0 0 0 3.857-1.69 55.775 55.775 0 0 0 9.219-5.8 60.209 60.209 0 0 0 10.868-10.819 57.477 57.477 0 0 0 8.729-15.815 13.623 13.623 0 0 0-10.2 2.585 38.235 38.235 0 0 0-10.2 10.085 93.7 93.7 0 0 0-5.818 9.115c-2.029 3.56-4.131 7.671-6.455 12.339z" class="cls-4" data-name="Path 485" transform="translate(-1333.926 -2443.18)"/>
            <path id="Path_486" d="M1431.6 2576.423a55.437 55.437 0 0 0 10.733-7.259 57.9 57.9 0 0 0 16.4-21.988 7.787 7.787 0 0 0-2.46-.193 14.628 14.628 0 0 0-6.4 2.032 28.961 28.961 0 0 0-8.785 8.417 79.129 79.129 0 0 0-9.488 18.991z" class="cls-4" data-name="Path 486" transform="translate(-1329.138 -2462.988)"/>
            <path id="Path_487" d="M1433.534 2560.7s1.084-.484 2.818-1.476a65.031 65.031 0 0 0 6.778-4.436 55.546 55.546 0 0 0 15.6-17.323 7.037 7.037 0 0 0-2.115-.4 12.345 12.345 0 0 0-5.72 1.116 23.065 23.065 0 0 0-8.249 6.488 56.485 56.485 0 0 0-9.112 16.031z" class="cls-4" data-name="Path 487" transform="translate(-1325.949 -2479.329)"/>
            <path id="Path_488" d="M1438.527 2554.455l-.173-.956c-.111-.625-.238-1.531-.341-2.681a52.238 52.238 0 0 1-.067-9.483 50.694 50.694 0 0 1 2.807-12.943 42.626 42.626 0 0 1 7.639-13.132 9.049 9.049 0 0 1 .671 2.355 24.951 24.951 0 0 1 .024 7.026c-.1.781-.228 1.61-.4 2.482s-.35 1.825-.6 2.808c-.528 1.954-1.113 4.167-2 6.569a193.9 193.9 0 0 1-7.56 17.955z" class="cls-4" data-name="Path 488" transform="translate(-1318.969 -2515.26)"/>
        </g>
        <path id="Path_489" d="M1291.715 2510.36c-2.746.612-1.829-51.392 0-53.511s99.6-3.67 102.653-.612 3.053 35.786 1.222 36.7-90.448 1.531-93.794 2.141-7.322 14.669-10.081 15.282z" class="cls-5" data-name="Path 489" transform="translate(260.533 73.113)"/>
        <path id="Path_490" d="M1318.3 2458.726a4.724 4.724 0 0 1 2.781-1.8c3.409-.725 6.95 1.72 10.415 1.76a20.144 20.144 0 0 1 7.5.22c5.858 2.431 6.242 12.45 4.551 17.457a10.583 10.583 0 0 1-5.622 6.476 7.341 7.341 0 0 1-8.138-1.523 19.067 19.067 0 0 1-2.91-7.177c-1.421-4.27-4.143-4.2-7.388-6.095a6.647 6.647 0 0 1-1.2-9.314z" class="cls-6" data-name="Path 490" transform="translate(304.979 76.863)"/>
        <path id="Path_491" d="M1274.541 2689.33c-31.52 49.111-13.784 94.168 26.067 127.154 52.137 43.137 238.506 61.9 325.042-42.589s45.285-238.129-22.643-259.19-171.58-28.011-207.185 64.521c-29.931 77.746-80.481 46.532-121.281 110.104z" class="cls-7" data-name="Path 491" transform="translate(208.365 150.466)"/>
        <path id="Path_492" d="M1290.673 2539.3c-2.749.612-1.834-51.392 0-53.524s50.992-3.671 54.046-.612 3.056 35.783 1.222 36.7-41.834 1.528-45.192 2.14-7.318 14.684-10.076 15.296z" class="cls-5" data-name="Path 492" transform="translate(258.809 120.804)"/>
        <path id="Path_493" d="M1506.154 2526.387s33.59 93.344-1.535 148.968c-27.08 42.872-116.105 79.681-171.315 43.18-48.989-32.4-45.291-72.721-35.122-84.77s196.189-124.734 207.972-107.378z" class="cls-8" data-name="Path 493" transform="translate(263.639 188.633)"/>
        <path id="Path_494" d="M1247.68 2547.389c-14 5.007-58.735-27.062-65.783 17.648s95.148 65.892 102.2 64.716 49.341-98.835 19.97-115.309-39.95 27.07-56.387 32.945z" class="cls-9" data-name="Path 494" transform="translate(81.536 165.827)"/>
        <path id="Path_495" d="M1305.339 2433.18c-5.975-1.377-14.4-22.485-26.777-8.519s18.436 44.088 21.158 45.248 39.083-23.356 32.53-35.619-19.892.495-26.911-1.11z" class="cls-9" data-name="Path 495" transform="translate(236.859 16.031)"/>
        <path id="Path_496" d="M1213.475 2433.358c-3.878 1.727-17.3-6.443-18.354 6.439s28.506 16.713 30.486 16.228 11.928-29.2 3.213-33.261-10.789 8.564-15.345 10.594z" class="cls-9" data-name="Path 496" transform="translate(103.895 19.427)"/>
        <path id="Path_497" d="M1315.241 2564.291c2.749.612 1.831-51.392 0-53.511s-51-3.671-54.051-.612-3.051 35.782-1.219 36.7 41.837 1.528 45.2 2.14 7.307 14.67 10.07 15.283z" class="cls-5" data-name="Path 497" transform="translate(208.925 162.044)"/>
        <path id="Path_498" d="M1336.709 2533.626c2.749.612 1.832-51.391 0-53.524s-85.5-3.671-88.556-.612-3.054 35.786-1.219 36.7 76.338 1.529 79.7 2.141 7.329 14.669 10.075 15.295z" class="cls-5" data-name="Path 498" transform="translate(187.403 111.449)"/>
        <path id="Path_499" d="M1250.849 2487.163l72.8.021a2.927 2.927 0 0 0 2.911-2.914 2.914 2.914 0 0 0-2.911-2.914l-72.8-.024a2.91 2.91 0 0 0-2.908 2.914 2.923 2.923 0 0 0 2.908 2.917z" class="cls-7" data-name="Path 499" transform="translate(191.129 117.326)"/>
        <rect id="Rectangle_22" width="44.636" height="5.833" class="cls-7" data-name="Rectangle 22" rx=".863" transform="translate(1472.681 2615.182)"/>
        <path id="Path_500" d="M1297.049 2465.421h38.812a2.91 2.91 0 0 0 2.908-2.913 2.911 2.911 0 0 0-2.908-2.915h-38.815a2.912 2.912 0 0 0-2.911 2.915 2.912 2.912 0 0 0 2.911 2.913z" class="cls-7" data-name="Path 500" transform="translate(267.389 81.476)"/>
        <path id="Path_501" d="M1297.047 2470.752h39.5a2.229 2.229 0 0 0 2.224-2.226v-1.38a2.23 2.23 0 0 0-2.221-2.228h-39.5a2.913 2.913 0 0 0-2.91 2.915 2.914 2.914 0 0 0 2.905 2.919z" class="cls-7" data-name="Path 501" transform="translate(267.39 90.257)"/>
        <path id="Path_502" d="M1342.489 2482.405h-27.019s-.915-10.552 7.56-10.552c5.537 0-8.246-13.534 5.265-13.534s2.977 13.3 6.184 13.3c7.321.004 8.01 10.786 8.01 10.786z" class="cls-7" data-name="Path 502" transform="translate(302.558 79.377)"/>
        <g id="Group_133" data-name="Group 133" transform="translate(1783.587 2569.186)">
            <g id="Group_131" data-name="Group 131">
                <path id="Path_503" d="M1413.152 2491.465a2.4 2.4 0 0 1-1.654-.66l-14.741-13.963-14.744 13.963a2.408 2.408 0 1 1-3.4-3.417c.029-.03.061-.059.09-.086l18.049-17.1 18.046 17.1a2.411 2.411 0 0 1-1.652 4.162z" class="cls-7" data-name="Path 503" transform="translate(-1377.91 -2470.207)"/>
            </g>
            <g id="Group_132" data-name="Group 132" transform="translate(.09 17.833)">
                <path id="Path_504" d="M1413.1 2498.2a2.4 2.4 0 0 1-1.654-.659l-14.741-13.963-14.744 13.963a2.409 2.409 0 0 1-3.305-3.5l18.049-17.1 18.046 17.1a2.411 2.411 0 0 1-1.651 4.162z" class="cls-7" data-name="Path 504" transform="translate(-1377.943 -2476.939)"/>
            </g>
        </g>
        <g id="Group_134" data-name="Group 134" transform="translate(1269.874 2604.351)">
            <path id="Path_505" d="M1241.337 2509.181c-1.264 1.693-37.839 27.743-39.316 27.958s-18.963-23.987-17.861-26.437a1.271 1.271 0 0 1 .093-.162c2.476-4.058 36.358-27.2 38.455-27.058a.363.363 0 0 1 .106.024c2.544.819 19.768 24.001 18.523 25.675z" class="cls-3" data-name="Path 505" transform="translate(-1184.11 -2483.481)"/>
            <path id="Path_506" d="M1222.725 2483.508c-2.863 8.7-8.164 24.107-10.219 25.524-2.2 1.534-20.077 1.571-28.342 1.51 2.476-4.058 36.358-27.2 38.455-27.057a.392.392 0 0 1 .106.023z" class="cls-10" data-name="Path 506" transform="translate(-1184.021 -2483.479)"/>
        </g>
        <g id="Group_135" data-name="Group 135" transform="translate(1386.899 2469.431)">
            <path id="Path_507" d="M1299.671 2529.874c-3.656-1.158-70.128-48.43-71.377-50.841s29.741-46.909 34.6-46.479a2.719 2.719 0 0 1 .328.061c8.43 1.828 68.312 46.2 69.32 49.895a.843.843 0 0 1 .024.2c.118 4.852-29.287 48.305-32.895 47.164z" class="cls-3" data-name="Path 507" transform="translate(-1228.258 -2432.55)"/>
            <path id="Path_508" d="M1310.793 2482.667c-16.61.265-46.142.374-49.818-2.3-3.944-2.869-14.69-33.552-19.525-47.788 8.43 1.828 68.312 46.2 69.32 49.895a.843.843 0 0 1 .023.193z" class="cls-10" data-name="Path 508" transform="translate(-1206.484 -2432.51)"/>
        </g>
        <g id="Group_136" data-name="Group 136" transform="translate(1225.69 2854.173)">
            <path id="Path_509" d="M1258.695 2633.125c-3.329 1.616-81.264 12.66-83.737 11.8s-10.229-52.666-6.537-55.593a2.029 2.029 0 0 1 .265-.177c7.12-4.323 78.515-13.015 81.667-11.1a.682.682 0 0 1 .146.124c3.308 3.333 11.483 53.347 8.196 54.946z" class="cls-3" data-name="Path 509" transform="translate(-1167.441 -2577.788)"/>
            <path id="Path_510" d="M1249.726 2578.185c-11.462 11.234-32.108 30.935-36.458 31.5-4.666.61-32.53-13.775-45.355-20.53 7.12-4.323 78.515-13.015 81.667-11.1a.687.687 0 0 1 .146.13z" class="cls-10" data-name="Path 510" transform="translate(-1166.661 -2577.788)"/>
        </g>
        <g id="Group_137" data-name="Group 137" transform="translate(1198.648 2509.101)">
            <path id="Path_511" d="M1169.77 2454.3l-12.53 18.782 42.733-9.272z" class="cls-8" data-name="Path 511" transform="translate(-1157.24 -2436.35)"/>
            <path id="Path_512" d="M1170.768 2453.727l5.458 29.6-14.263-28.079z" class="cls-7" data-name="Path 512" transform="translate(-1149.445 -2437.298)"/>
            <path id="Path_513" d="M1170.747 2483.318l60.625-28.344-66.083-1.243z" class="cls-8" data-name="Path 513" transform="translate(-1143.953 -2437.291)"/>
            <path id="Path_514" d="M1165.284 2463.954s29.45 30.813 33.266 31.789 73.275-42.038 71.841-47.352-105.107 15.563-105.107 15.563z" class="cls-5" data-name="Path 514" transform="translate(-1143.961 -2447.525)"/>
        </g>
        <g id="Group_138" data-name="Group 138" transform="translate(1350.55 2840.303)">
            <path id="Path_515" d="M1256.353 2573.408l10.02 12.355-29.651-2.292z" class="cls-8" data-name="Path 515" transform="translate(-1177.939 -2571.142)"/>
            <path id="Path_516" d="M1242.615 2573.336l-1.251 22.1 7.326-21.908z" class="cls-7" data-name="Path 516" transform="translate(-1170.275 -2571.261)"/>
            <path id="Path_517" d="M1268.339 2595.429l-43.316-14.3 44.57-7.786z" class="cls-8" data-name="Path 517" transform="translate(-1197.25 -2571.256)"/>
            <path id="Path_518" d="M1286.886 2574.627s-17.371 25.481-19.87 26.578-53-22.946-52.466-26.962 72.336.384 72.336.384z" class="cls-5" data-name="Path 518" transform="translate(-1214.545 -2572.553)"/>
        </g>
        <g id="Group_139" data-name="Group 139" transform="translate(1362.303 2611.53)">
            <path id="Path_519" d="M1332.056 2542.944s.986-27.081-1.14-28.295-4.093 10.631-7.73 8.809-12.429-20.5-14.406-19.743 2.881 11.693 1.821 13.059-6.537-8.068-8.2-7.592c-4.14 1.195-6.728 13.865-3.942 17.767a301.145 301.145 0 0 1 17.969 27.166s11.612 21.885 15.628-11.171z" class="cls-11" data-name="Path 519" transform="translate(-1089.693 -2457.335)"/>
            <path id="Path_520" d="M1388.859 2519.2s-34.8 42.9-43.828 39.608c-11.08-4.037-24.9-40.3-24.9-40.3s-4.906 13.406-15.615 11.17c0 0 13 63.254 28.609 67.287 15.027 3.886 73.561-37.794 73.561-39.134s-17.827-38.631-17.827-38.631z" class="cls-10" data-name="Path 520" transform="translate(-1077.773 -2432.905)"/>
            <path id="Path_521" d="M1413.988 2517.951s48.739 20.453 49.953 43.942-25.081 82.5-36.813 98.478-33.182 43.664-37.877 43.664-57.855-21.571-65.365-30.973 30.035-69.095 31.912-83.2-6.919-63.229 5.442-69.282c18.196-8.904 52.748-2.629 52.748-2.629z" class="cls-3" data-name="Path 521" transform="translate(-1047.438 -2437.359)"/>
            <path id="Path_522" d="M1527.114 2603.688s-5.493 26.906-20.655 37.841c-7.234 5.216-65.06 7.589-120.395 35.823-62.889 32.093-130.109 85.969-139.365 86.92 0 0 3.841-13.205-7.313-19.462 0 0 57-57.841 114.157-98.592 46.136-32.893 89.722-53.887 96.5-58.679 15.157-10.724 55.804-23.625 77.071 16.149z" class="cls-6" data-name="Path 522" transform="translate(-1185.292 -2337.011)"/>
            <path id="Path_523" fill="#37474f" d="M1329.443 2572.488s-56.97 11.555-59.7 28.874 105.65 65.868 105.65 65.868a12.289 12.289 0 0 1 14.282-9.831s-54.656-37.227-53.139-43.3 84.126-7.065 84.126-7.065z" data-name="Path 523" transform="translate(-1135.264 -2343.887)"/>
            <path id="Path_524" d="M1322.287 2615.885s-.938 11.766-16.925 17.417 18.269 22.442 36.6 5.033-4.639-32.8-4.639-32.8-18.792-8.483-15.036 10.35z" class="cls-3" data-name="Path 524" transform="translate(-1083.211 -2292.53)"/>
            <path id="Path_525" d="M1273.065 2654.517s-30.11-12.056-45.508-20.557c-28.331-15.629 21.106 45.7 38.77 46.3a15.912 15.912 0 0 0 14.052-6.278s6.515-15.889-7.314-19.465z" class="cls-3" data-name="Path 525" transform="translate(-1218.979 -2246.719)"/>
            <path id="Path_526" d="M1351.2 2532.983a39.69 39.69 0 0 1-2.675 21.9c-4.909 10.726 38.367 3.577 37.476-15.629a48.011 48.011 0 0 0-9.37-26.814z" class="cls-11" data-name="Path 526" transform="translate(-1005.774 -2442.913)"/>
            <path id="Path_527" d="M1332.06 2511.841s19.207 65.225 27.379 66.713 44.585-19.846 44.585-19.846-8.175-65.494-19.305-66.239-52.659 19.372-52.659 19.372z" class="cls-11" data-name="Path 527" transform="translate(-1032.311 -2475.875)"/>
            <path id="Path_528" d="M1320.935 2511.9c-3.767 18.568 20.673 31.76 35.729 28.345s29.137-7.3 34.966-4.868 5.333 18.339 7.764 19.312 6.8-13.956 11.661-11.036 4 16.286 6.314 22.887 10.685 7.791 13.113 6.328 6.571-72.6-13.827-83.315-22.462 7.754-37.028 6.292-54.938-2.511-58.692 16.055z" class="cls-6" data-name="Path 528" transform="translate(-1051.318 -2486.192)"/>
            <path id="Path_529" d="M1393.266 2655.762s3.234-83.426-.811-87.476-101.892-22.276-104.315-21.457 4.446 83.426 5.66 87.071 99.466 21.862 99.466 21.862z" class="cls-5" data-name="Path 529" transform="translate(-1105.662 -2386.243)"/>
            <path id="Path_530" d="M1313.79 2585.442c-2.792.628-13.463-22.37-11.9-24.432s25.137 2.649 26.022 5.873-10.099 17.656-14.122 18.559z" class="cls-1" data-name="Path 530" transform="translate(-1082.374 -2363.644)"/>
            <path id="Path_531" d="M1378.405 2620.457s55.594-15.794 56.506-17.921-3.035-5.468-3.035-5.468l-135.249-28.856z" class="cls-5" data-name="Path 531" transform="translate(-1090.802 -2350.938)"/>
            <path id="Path_532" d="M1352.032 2574.367s-9.026-6.449-13.039-2.429-11.756 25.373-8.2 25.818 31.539-11.007 31.539-11.007c6.002-8.739-.715-13.626-10.3-12.382z" class="cls-11" data-name="Path 532" transform="translate(-1035.904 -2346.969)"/>
            <path id="Path_533" d="M1409.263 2548.386c-1.527 32.83 1.007 50.457-9.572 62.187-8.8 9.753-61.452 31.364-61.452 31.364 6.234 1.245 11.252 7.2 10.317 12.382 0 0 65.749-7.539 82.875-21.163 13.137-10.451 7.642-83.556 7.189-94.083-.636-14.904-28.35-12.382-29.357 9.313z" class="cls-10" data-name="Path 533" transform="translate(-1022.111 -2414.535)"/>
        </g>
        <path id="Path_534" d="M1319.007 2457.75s.308 11.012 9.927 11.012.61-9.941.61-9.941z" class="cls-6" data-name="Path 534" transform="translate(308.444 78.437)"/>
    </g>
</svg>
